<svg xmlns="http://www.w3.org/2000/svg" width="2200" height="900" viewBox="0 0 2200 900">
  <defs>
    <linearGradient id="bg2" x1="0" x2="1" y1="0" y2="1">
      <stop offset="0%" stop-color="#06131C"/>
      <stop offset="100%" stop-color="#0a2635"/>
    </linearGradient>
  </defs>
  <rect width="2200" height="900" rx="40" fill="url(#bg2)"/>
  <g transform="translate(80,110) scale(0.62)">
    <path d="M 442.1 251.2 A 270 270 0 0 0 251.2 442.1" fill="none" stroke="#5BE2E2" stroke-width="14" stroke-linecap="round" />
    <path d="M 772.8 442.1 A 270 270 0 0 0 581.9 251.2" fill="none" stroke="#5BE2E2" stroke-width="14" stroke-linecap="round" />
    <path d="M 251.2 581.9 A 270 270 0 0 0 442.1 772.8" fill="none" stroke="#72AFFF" stroke-width="14" stroke-linecap="round" />
    <path d="M 581.9 772.8 A 270 270 0 0 0 772.8 581.9" fill="none" stroke="#72AFFF" stroke-width="14" stroke-linecap="round" />
    <line x1="512.0" y1="242.0" x2="278.2" y2="377.0" stroke="#167D86" stroke-width="14" stroke-linecap="round" />
    <line x1="512.0" y1="242.0" x2="745.8" y2="377.0" stroke="#167D86" stroke-width="14" stroke-linecap="round" />
    <line x1="512.0" y1="242.0" x2="585.0" y2="420.0" stroke="#72AFFF" stroke-width="14" stroke-linecap="round" />
    <line x1="278.2" y1="377.0" x2="420.0" y2="435.0" stroke="#167D86" stroke-width="14" stroke-linecap="round" />
    <line x1="745.8" y1="377.0" x2="585.0" y2="420.0" stroke="#167D86" stroke-width="14" stroke-linecap="round" />
    <line x1="420.0" y1="435.0" x2="585.0" y2="420.0" stroke="#72AFFF" stroke-width="14" stroke-linecap="round" />
    <line x1="420.0" y1="435.0" x2="512.0" y2="560.0" stroke="#72AFFF" stroke-width="14" stroke-linecap="round" />
    <line x1="585.0" y1="420.0" x2="512.0" y2="560.0" stroke="#72AFFF" stroke-width="14" stroke-linecap="round" />
    <line x1="420.0" y1="435.0" x2="278.2" y2="647.0" stroke="#72AFFF" stroke-width="14" stroke-linecap="round" />
    <line x1="512.0" y1="560.0" x2="278.2" y2="647.0" stroke="#72AFFF" stroke-width="14" stroke-linecap="round" />
    <line x1="512.0" y1="560.0" x2="745.8" y2="647.0" stroke="#72AFFF" stroke-width="14" stroke-linecap="round" />
    <line x1="585.0" y1="420.0" x2="745.8" y2="647.0" stroke="#72AFFF" stroke-width="14" stroke-linecap="round" />
    <line x1="512.0" y1="560.0" x2="512.0" y2="782.0" stroke="#72AFFF" stroke-width="14" stroke-linecap="round" />
    <line x1="278.2" y1="647.0" x2="512.0" y2="782.0" stroke="#72AFFF" stroke-width="14" stroke-linecap="round" />
    <line x1="745.8" y1="647.0" x2="512.0" y2="782.0" stroke="#72AFFF" stroke-width="14" stroke-linecap="round" />
    <circle cx="559.0" cy="448.0" r="7" fill="#B8FFFF" stroke="none" stroke-width="0" />
    <circle cx="533.0" cy="476.0" r="7" fill="#B8FFFF" stroke="none" stroke-width="0" />
    <circle cx="507.0" cy="504.0" r="7" fill="#B8FFFF" stroke="none" stroke-width="0" />
    <circle cx="481.0" cy="532.0" r="7" fill="#B8FFFF" stroke="none" stroke-width="0" />
    <circle cx="512.0" cy="242.0" r="34" fill="#B8FFFF" stroke="none" stroke-width="0" />
    <circle cx="278.2" cy="377.0" r="30" fill="#5BE2E2" stroke="none" stroke-width="0" />
    <circle cx="745.8" cy="377.0" r="30" fill="#5BE2E2" stroke="none" stroke-width="0" />
    <circle cx="278.2" cy="647.0" r="30" fill="#72AFFF" stroke="none" stroke-width="0" />
    <circle cx="745.8" cy="647.0" r="30" fill="#72AFFF" stroke="none" stroke-width="0" />
    <circle cx="512.0" cy="782.0" r="34" fill="#72AFFF" stroke="none" stroke-width="0" />
    <circle cx="420.0" cy="435.0" r="34" fill="#56B9C5" stroke="none" stroke-width="0" />
    <circle cx="585.0" cy="420.0" r="28" fill="#8DDDE0" stroke="none" stroke-width="0" />
    <circle cx="512.0" cy="560.0" r="34" fill="#72AFFF" stroke="none" stroke-width="0" />
  </g>
  <text x="820" y="540" fill="#F8FAFC" font-family="Inter, Sora, 'Avenir Next', 'Segoe UI', Arial, sans-serif" font-size="320" font-weight="700" letter-spacing="-10">TyLog</text>
</svg>